<?xml version="1.0" encoding="utf-8"?>
<!-- Generator: Adobe Illustrator 22.1.0, SVG Export Plug-In . SVG Version: 6.00 Build 0)  -->
<svg version="1.1" id="Layer_1" xmlns="http://www.w3.org/2000/svg" xmlns:xlink="http://www.w3.org/1999/xlink" x="0px" y="0px"
	 viewBox="0 0 1366 1366" style="enable-background:new 0 0 1366 1366;" xml:space="preserve">
<style type="text/css">
	.st0{fill:#A2E0DC;}
	.st1{fill:#2A3A39;}
	.st2{fill:#FFFFFF;}
	.st3{fill:#54C5CD;}
</style>
<g>
	<path class="st0" d="M0,0v1366h1366V0H0z M1357,1357H9V9h1348V1357z"/>
	<rect x="9" y="9" class="st1" width="1348" height="1348"/>
	<g>
		<path class="st2" d="M180.1,431H229v19.4h-48.9V510c0,6.5,0.5,11.8,1.5,16s2.5,7.5,4.5,9.9s4.5,4.1,7.4,5.1c3,1,6.5,1.5,10.4,1.5
			c6.9,0,12.5-0.8,16.8-2.4c4.2-1.6,7.2-2.7,8.8-3.4l4.5,19.1c-2.3,1.2-6.4,2.6-12.2,4.3s-12.4,2.6-19.9,2.6c-8.8,0-16-1.1-21.7-3.4
			s-10.3-5.6-13.8-10.1s-5.9-10-7.3-16.5c-1.4-6.5-2.1-14.1-2.1-22.7V395l23.1-4V431z"/>
		<path class="st2" d="M306,428.3c2,0,4.3,0.1,6.8,0.4c2.6,0.2,5.1,0.6,7.6,1s4.8,0.8,6.8,1.2c2.1,0.4,3.6,0.8,4.6,1.1l-4,20.1
			c-1.8-0.7-4.8-1.4-9.1-2.4c-4.2-0.9-9.6-1.4-16.3-1.4c-4.3,0-8.6,0.5-12.8,1.4c-4.2,0.9-7,1.5-8.3,1.9v108.5h-23.1V436.5
			c5.5-2,12.2-3.8,20.4-5.6C286.8,429.2,295.9,428.3,306,428.3z"/>
		<path class="st2" d="M395.8,427.8c9.3,0,17.1,1.2,23.5,3.6s11.5,5.8,15.4,10.2c3.9,4.4,6.7,9.6,8.3,15.6c1.7,6,2.5,12.7,2.5,20
			v80.7c-2,0.3-4.8,0.8-8.3,1.4c-3.6,0.6-7.6,1.1-12,1.6s-9.3,1-14.5,1.4s-10.4,0.6-15.5,0.6c-7.3,0-14-0.7-20.1-2.2
			s-11.4-3.8-15.9-7.1c-4.5-3.2-7.9-7.5-10.4-12.8s-3.7-11.7-3.7-19.1c0-7.1,1.4-13.2,4.3-18.4c2.9-5.1,6.8-9.3,11.8-12.4
			s10.8-5.5,17.4-6.9c6.6-1.5,13.6-2.2,20.8-2.2c2.3,0,4.7,0.1,7.2,0.4c2.5,0.2,4.8,0.6,7.1,1c2.2,0.4,4.2,0.8,5.8,1.1
			c1.7,0.3,2.8,0.6,3.5,0.7v-6.5c0-3.8-0.4-7.6-1.2-11.3c-0.8-3.7-2.3-7-4.5-9.9s-5.1-5.2-8.8-6.9c-3.7-1.7-8.6-2.6-14.5-2.6
			c-7.6,0-14.3,0.5-20,1.6s-10,2.2-12.8,3.4l-2.7-19.1c3-1.3,7.9-2.6,14.9-3.8C380.2,428.4,387.7,427.8,395.8,427.8z M397.8,543.5
			c5.5,0,10.3-0.1,14.5-0.4c4.2-0.2,7.7-0.7,10.5-1.4v-38.5c-1.7-0.8-4.3-1.5-8.1-2.1c-3.7-0.6-8.2-0.9-13.5-0.9
			c-3.5,0-7.2,0.2-11,0.7c-3.9,0.5-7.4,1.5-10.7,3.1c-3.2,1.6-5.9,3.7-8.1,6.5c-2.2,2.7-3.2,6.3-3.2,10.8c0,8.3,2.6,14,7.9,17.2
			C381.5,541.9,388.7,543.5,397.8,543.5z"/>
		<path class="st2" d="M539.8,563.1c-10.4,0-19.6-1.7-27.4-5c-7.9-3.3-14.5-7.9-19.9-13.9s-9.4-13-12-21.2s-4-17.2-4-27.2
			s1.4-19,4.3-27.3s7-15.4,12.3-21.5c5.3-6,11.8-10.8,19.5-14.1c7.7-3.4,16.3-5.1,25.7-5.1c5.8,0,11.6,0.5,17.4,1.5
			c5.8,1,11.3,2.6,16.6,4.7l-5.2,19.6c-3.5-1.7-7.5-3-12-4c-4.6-1-9.4-1.5-14.5-1.5c-12.9,0-22.8,4.1-29.7,12.2
			c-6.9,8.1-10.3,19.9-10.3,35.5c0,6.9,0.8,13.3,2.4,19.1c1.6,5.8,4.1,10.8,7.4,14.9c3.4,4.1,7.7,7.3,13,9.6
			c5.3,2.2,11.7,3.4,19.4,3.4c6.1,0,11.7-0.6,16.6-1.7c5-1.2,8.9-2.4,11.7-3.7l3.2,19.4c-1.3,0.8-3.2,1.6-5.7,2.4s-5.3,1.4-8.4,2
			c-3.1,0.6-6.5,1.1-10.1,1.5C546.5,562.9,543.1,563.1,539.8,563.1z"/>
		<path class="st2" d="M591.9,495.8c0-11.4,1.7-21.4,5-29.9s7.7-15.6,13.2-21.2s11.7-9.8,18.9-12.7c7.1-2.8,14.4-4.2,21.8-4.2
			c17.4,0,30.7,5.4,40,16.3c9.3,10.8,13.9,27.3,13.9,49.5c0,1,0,2.3,0,3.8c0,1.6-0.1,3-0.2,4.3H616c1,13.4,4.9,23.6,11.7,30.5
			s17.4,10.4,31.8,10.4c8.1,0,14.9-0.7,20.5-2.1c5.5-1.4,9.7-2.8,12.5-4.1l3.2,19.4c-2.8,1.5-7.7,3.1-14.8,4.7c-7,1.7-15,2.5-24,2.5
			c-11.3,0-21-1.7-29.2-5.1c-8.2-3.4-14.9-8.1-20.2-14c-5.3-6-9.2-13-11.8-21.2C593.2,514.6,591.9,505.6,591.9,495.8z M680.5,483.2
			c0.2-10.4-2.4-19-7.8-25.7c-5.4-6.7-12.8-10.1-22.2-10.1c-5.3,0-10,1-14,3.1c-4.1,2.1-7.5,4.8-10.3,8.1c-2.8,3.3-5,7.1-6.6,11.4
			s-2.6,8.7-3.1,13.2H680.5z"/>
		<path class="st2" d="M759.4,431h48.9v19.4h-48.9V510c0,6.5,0.5,11.8,1.5,16s2.5,7.5,4.5,9.9s4.5,4.1,7.4,5.1c3,1,6.5,1.5,10.4,1.5
			c6.9,0,12.5-0.8,16.8-2.4c4.2-1.6,7.2-2.7,8.8-3.4l4.5,19.1c-2.3,1.2-6.4,2.6-12.2,4.3s-12.4,2.6-19.9,2.6c-8.8,0-16-1.1-21.7-3.4
			c-5.7-2.2-10.3-5.6-13.8-10.1s-5.9-10-7.3-16.5c-1.4-6.5-2.1-14.1-2.1-22.7V395l23.1-4V431z"/>
		<path class="st2" d="M948.1,495.6c0,10.3-1.5,19.5-4.5,27.8c-3,8.3-7.2,15.4-12.5,21.3c-5.4,6-11.8,10.5-19.2,13.8
			c-7.4,3.2-15.6,4.8-24.3,4.8c-8.8,0-16.9-1.6-24.3-4.8s-13.9-7.8-19.2-13.8c-5.4-6-9.6-13.1-12.5-21.3c-3-8.3-4.5-17.5-4.5-27.8
			c0-10.1,1.5-19.3,4.5-27.7c3-8.4,7.2-15.5,12.5-21.5c5.4-6,11.8-10.5,19.2-13.8s15.6-4.8,24.3-4.8c8.8,0,16.9,1.6,24.3,4.8
			c7.4,3.2,13.9,7.8,19.2,13.8c5.4,6,9.6,13.1,12.5,21.5C946.6,476.3,948.1,485.5,948.1,495.6z M924,495.6c0-14.6-3.3-26.1-9.8-34.6
			s-15.4-12.8-26.7-12.8s-20.1,4.3-26.7,12.8c-6.5,8.5-9.8,20.1-9.8,34.6c0,14.6,3.3,26.1,9.8,34.6s15.4,12.8,26.7,12.8
			c11.2,0,20.1-4.3,26.7-12.8C920.7,521.7,924,510.1,924,495.6z"/>
		<path class="st2" d="M1007.9,546.7c0,4.5-1.5,8.4-4.5,11.7s-7,5-12.2,5c-5.1,0-9.2-1.7-12.2-5s-4.5-7.2-4.5-11.7s1.5-8.4,4.5-11.7
			s7-5,12.2-5c5.1,0,9.2,1.7,12.2,5S1007.9,542.2,1007.9,546.7z"/>
		<path class="st2" d="M1053,407.7c-4.1,0-7.7-1.4-10.5-4.1c-2.9-2.7-4.3-6.4-4.3-11s1.4-8.3,4.3-11s6.4-4.1,10.5-4.1
			s7.7,1.4,10.5,4.1c2.9,2.7,4.3,6.4,4.3,11s-1.5,8.3-4.3,11C1060.7,406.3,1057.2,407.7,1053,407.7z M1064.7,560.1h-23.1V431h23.1
			V560.1z"/>
		<path class="st2" d="M1218.3,495.6c0,10.3-1.5,19.5-4.5,27.8c-3,8.3-7.2,15.4-12.5,21.3c-5.4,6-11.8,10.5-19.2,13.8
			c-7.4,3.2-15.6,4.8-24.3,4.8c-8.8,0-16.9-1.6-24.3-4.8s-13.9-7.8-19.2-13.8c-5.4-6-9.6-13.1-12.5-21.3c-3-8.3-4.5-17.5-4.5-27.8
			c0-10.1,1.5-19.3,4.5-27.7c3-8.4,7.2-15.5,12.5-21.5c5.4-6,11.8-10.5,19.2-13.8s15.6-4.8,24.3-4.8c8.8,0,16.9,1.6,24.3,4.8
			c7.4,3.2,13.9,7.8,19.2,13.8c5.4,6,9.6,13.1,12.5,21.5C1216.9,476.3,1218.3,485.5,1218.3,495.6z M1194.3,495.6
			c0-14.6-3.3-26.1-9.8-34.6s-15.4-12.8-26.7-12.8c-11.3,0-20.1,4.3-26.7,12.8c-6.5,8.5-9.8,20.1-9.8,34.6c0,14.6,3.3,26.1,9.8,34.6
			s15.4,12.8,26.7,12.8c11.2,0,20.1-4.3,26.7-12.8C1191,521.7,1194.3,510.1,1194.3,495.6z"/>
	</g>
	<path class="st3" d="M1063.5,698c-36.2,0-65.5,29.3-65.5,65.5c0,13.9,4.3,26.7,11.7,37.3L868.6,925.6
		c-11.5-18.9-32.3-31.6-56.1-31.6c-20.3,0-38.5,9.3-50.5,23.8L629.9,801.1c0.1-1.2,0.1-2.4,0.1-3.6c0-36.2-29.3-65.5-65.5-65.5
		S499,761.3,499,797.5c0,3.6,0.3,7.2,0.9,10.6L342.3,947.5c-11-8.4-24.8-13.5-39.8-13.5c-36.2,0-65.5,29.3-65.5,65.5
		c0,36.2,29.3,65.5,65.5,65.5s65.5-29.3,65.5-65.5c0-12.1-3.3-23.4-9-33.1l150.6-133.2c11.7,17.9,31.9,29.7,54.8,29.7
		c25.1,0,46.8-14.1,57.9-34.8l127.4,112.6c-1.8,5.9-2.7,12.2-2.7,18.7c0,36.2,29.3,65.5,65.5,65.5s65.5-29.3,65.5-65.5
		c0-2.7-0.2-5.4-0.5-8l150.4-133c10.2,6.6,22.4,10.5,35.6,10.5c36.2,0,65.5-29.3,65.5-65.5C1129,727.3,1099.7,698,1063.5,698z
		 M303.5,1039c-21.8,0-39.5-17.7-39.5-39.5s17.7-39.5,39.5-39.5s39.5,17.7,39.5,39.5S325.3,1039,303.5,1039z M565.5,837
		c-21.8,0-39.5-17.7-39.5-39.5s17.7-39.5,39.5-39.5s39.5,17.7,39.5,39.5S587.3,837,565.5,837z M813.5,999
		c-21.8,0-39.5-17.7-39.5-39.5s17.7-39.5,39.5-39.5s39.5,17.7,39.5,39.5S835.3,999,813.5,999z M1064.5,803
		c-21.8,0-39.5-17.7-39.5-39.5s17.7-39.5,39.5-39.5s39.5,17.7,39.5,39.5S1086.3,803,1064.5,803z"/>
</g>
</svg>
